{
  "accessors": [
    {
      "bufferView": 2,
      "componentType": 5126,
      "count": 65532,
      "max": [
        20.294370651245117,
        -7.3056011199951172,
        342.35983276367188
      ],
      "min": [
        7.312950611114502,
        -20.83671760559082,
        316.78054809570312
      ],
      "type": "VEC3"
    },
    {
      "bufferView": 2,
      "byteOffset": 786384,
      "componentType": 5126,
      "count": 65532,
      "max": [
        0.99999678134918213,
        0.99991631507873535,
        0.99998980760574341
      ],
      "min": [
        -0.99997413158416748,
        -0.99999946355819702,
        -0.99999713897705078
      ],
      "type": "VEC3"
    },
    {
      "bufferView": 1,
      "componentType": 5126,
      "count": 65532,
      "max": [
        0.50068438053131104,
        1
      ],
      "min": [
        0,
        0
      ],
      "type": "VEC2"
    },
    {
      "bufferView": 0,
      "componentType": 5125,
      "count": 345237,
      "max": [
        65531
      ],
      "min": [
        0
      ],
      "type": "SCALAR"
    },
    {
      "bufferView": 2,
      "byteOffset": 1572768,
      "componentType": 5126,
      "count": 65532,
      "max": [
        12.122706413269043,
        -7.4603309631347656,
        344.36392211914062
      ],
      "min": [
        7.0886616706848145,
        -15.298112869262695,
        316.87893676757812
      ],
      "type": "VEC3"
    },
    {
      "bufferView": 2,
      "byteOffset": 2359152,
      "componentType": 5126,
      "count": 65532,
      "max": [
        0.99594724178314209,
        0.99947762489318848,
        0.99997591972351074
      ],
      "min": [
        -0.99993431568145752,
        -0.99999934434890747,
        -0.99956834316253662
      ],
      "type": "VEC3"
    },
    {
      "bufferView": 1,
      "byteOffset": 524256,
      "componentType": 5126,
      "count": 65532,
      "max": [
        0.3930010199546814,
        0.99217349290847778
      ],
      "min": [
        0.025690518319606781,
        0
      ],
      "type": "VEC2"
    },
    {
      "bufferView": 0,
      "byteOffset": 1380948,
      "componentType": 5125,
      "count": 333903,
      "max": [
        65531
      ],
      "min": [
        0
      ],
      "type": "SCALAR"
    },
    {
      "bufferView": 2,
      "byteOffset": 3145536,
      "componentType": 5126,
      "count": 32508,
      "max": [
        8.2401599884033203,
        -9.8578424453735352,
        342.80996704101562
      ],
      "min": [
        7.0886616706848145,
        -14.35511302947998,
        318.91806030273438
      ],
      "type": "VEC3"
    },
    {
      "bufferView": 2,
      "byteOffset": 3535632,
      "componentType": 5126,
      "count": 32508,
      "max": [
        0.9992520809173584,
        0.99995410442352295,
        0.99947130680084229
      ],
      "min": [
        -0.99999994039535522,
        -0.99941021203994751,
        -0.99810647964477539
      ],
      "type": "VEC3"
    },
    {
      "bufferView": 1,
      "byteOffset": 1048512,
      "componentType": 5126,
      "count": 32508,
      "max": [
        0.36952704191207886,
        0.94548732042312622
      ],
      "min": [
        0.15985593199729919,
        0.090697228908538818
      ],
      "type": "VEC2"
    },
    {
      "bufferView": 0,
      "byteOffset": 2716560,
      "componentType": 5125,
      "count": 155349,
      "max": [
        32507
      ],
      "min": [
        0
      ],
      "type": "SCALAR"
    },
    {
      "bufferView": 2,
      "byteOffset": 3925728,
      "componentType": 5126,
      "count": 65532,
      "max": [
        20.264766693115234,
        -8.1359968185424805,
        342.59152221679688
      ],
      "min": [
        8.9368658065795898,
        -20.857555389404297,
        316.19381713867188
      ],
      "type": "VEC3"
    },
    {
      "bufferView": 2,
      "byteOffset": 4712112,
      "componentType": 5126,
      "count": 65532,
      "max": [
        0.99999958276748657,
        0.99973845481872559,
        0.99999713897705078
      ],
      "min": [
        -0.99982136487960815,
        -0.99998188018798828,
        -0.99998903274536133
      ],
      "type": "VEC3"
    },
    {
      "bufferView": 1,
      "byteOffset": 1308576,
      "componentType": 5126,
      "count": 65532,
      "max": [
        1,
        0.45157256722450256
      ],
      "min": [
        0.0029540369287133217,
        0.019611528143286705
      ],
      "type": "VEC2"
    },
    {
      "bufferView": 0,
      "byteOffset": 3337956,
      "componentType": 5125,
      "count": 354045,
      "max": [
        65531
      ],
      "min": [
        0
      ],
      "type": "SCALAR"
    },
    {
      "bufferView": 2,
      "byteOffset": 5498496,
      "componentType": 5126,
      "count": 65532,
      "max": [
        13.002501487731934,
        -7.3609623908996582,
        344.24649047851562
      ],
      "min": [
        7.9885463714599609,
        -20.848407745361328,
        316.14120483398438
      ],
      "type": "VEC3"
    },
    {
      "bufferView": 2,
      "byteOffset": 6284880,
      "componentType": 5126,
      "count": 65532,
      "max": [
        0.99989932775497437,
        0.99999922513961792,
        0.99998939037322998
      ],
      "min": [
        -0.9999580979347229,
        -0.9998512864112854,
        -0.99993026256561279
      ],
      "type": "VEC3"
    },
    {
      "bufferView": 1,
      "byteOffset": 1832832,
      "componentType": 5126,
      "count": 65532,
      "max": [
        0.9999580979347229,
        0.45013964176177979
      ],
      "min": [
        0,
        0.0021129320375621319
      ],
      "type": "VEC2"
    },
    {
      "bufferView": 0,
      "byteOffset": 4754136,
      "componentType": 5125,
      "count": 349641,
      "max": [
        65531
      ],
      "min": [
        0
      ],
      "type": "SCALAR"
    },
    {
      "bufferView": 2,
      "byteOffset": 7071264,
      "componentType": 5126,
      "count": 10023,
      "max": [
        10.07877254486084,
        -8.8636903762817383,
        343.60546875
      ],
      "min": [
        2.119143009185791,
        -11.160051345825195,
        314.82501220703125
      ],
      "type": "VEC3"
    },
    {
      "bufferView": 2,
      "byteOffset": 7191540,
      "componentType": 5126,
      "count": 10023,
      "max": [
        0.99847275018692017,
        0.99999922513961792,
        0.99961501359939575
      ],
      "min": [
        -0.9917607307434082,
        -0.99900680780410767,
        -0.9892154335975647
      ],
      "type": "VEC3"
    },
    {
      "bufferView": 1,
      "byteOffset": 2357088,
      "componentType": 5126,
      "count": 10023,
      "max": [
        0.95903348922729492,
        0.43743801116943359
      ],
      "min": [
        0.0005903725977987051,
        0
      ],
      "type": "VEC2"
    },
    {
      "bufferView": 0,
      "byteOffset": 6152700,
      "componentType": 5125,
      "count": 37371,
      "max": [
        10022
      ],
      "min": [
        0
      ],
      "type": "SCALAR"
    },
    {
      "bufferView": 2,
      "byteOffset": 7311816,
      "componentType": 5126,
      "count": 26118,
      "max": [
        20.235860824584961,
        -7.3927412033081055,
        323.45004272460938
      ],
      "min": [
        9.4290180206298828,
        -20.68419075012207,
        316.41555786132812
      ],
      "type": "VEC3"
    },
    {
      "bufferView": 2,
      "byteOffset": 7625232,
      "componentType": 5126,
      "count": 26118,
      "max": [
        0.99998116493225098,
        0.99999982118606567,
        0.99999207258224487
      ],
      "min": [
        -0.99996060132980347,
        -0.99998551607131958,
        -0.99992328882217407
      ],
      "type": "VEC3"
    },
    {
      "bufferView": 1,
      "byteOffset": 2437272,
      "componentType": 5126,
      "count": 26118,
      "max": [
        0.74438798427581787,
        1
      ],
      "min": [
        0,
        0
      ],
      "type": "VEC2"
    },
    {
      "bufferView": 0,
      "byteOffset": 6302184,
      "componentType": 5125,
      "count": 130761,
      "max": [
        26117
      ],
      "min": [
        0
      ],
      "type": "SCALAR"
    },
    {
      "bufferView": 2,
      "byteOffset": 7938648,
      "componentType": 5126,
      "count": 57290,
      "max": [
        20.17347526550293,
        -7.0942916870117188,
        318.84576416015625
      ],
      "min": [
        1.8960751295089722,
        -20.837574005126953,
        314.92538452148438
      ],
      "type": "VEC3"
    },
    {
      "bufferView": 2,
      "byteOffset": 8626128,
      "componentType": 5126,
      "count": 57290,
      "max": [
        0.99994045495986938,
        0.99995392560958862,
        0.99999910593032837
      ],
      "min": [
        -0.99997979402542114,
        -0.99991756677627563,
        -0.99998593330383301
      ],
      "type": "VEC3"
    },
    {
      "bufferView": 1,
      "byteOffset": 2646216,
      "componentType": 5126,
      "count": 57290,
      "max": [
        0.79119336605072021,
        1
      ],
      "min": [
        0,
        0
      ],
      "type": "VEC2"
    },
    {
      "bufferView": 0,
      "byteOffset": 6825228,
      "componentType": 5125,
      "count": 311013,
      "max": [
        57289
      ],
      "min": [
        0
      ],
      "type": "SCALAR"
    },
    {
      "bufferView": 2,
      "byteOffset": 9313608,
      "componentType": 5126,
      "count": 24531,
      "max": [
        20.00422477722168,
        -7.2168660163879395,
        318.7794189453125
      ],
      "min": [
        7.6238150596618652,
        -20.874658584594727,
        315.95443725585938
      ],
      "type": "VEC3"
    },
    {
      "bufferView": 2,
      "byteOffset": 9607980,
      "componentType": 5126,
      "count": 24531,
      "max": [
        0.99997276067733765,
        0.99982011318206787,
        0.99999409914016724
      ],
      "min": [
        -0.99985599517822266,
        -0.999988853931427,
        -0.99998384714126587
      ],
      "type": "VEC3"
    },
    {
      "bufferView": 1,
      "byteOffset": 3104536,
      "componentType": 5126,
      "count": 24531,
      "max": [
        0.91364109516143799,
        1
      ],
      "min": [
        0.0007979546207934618,
        0
      ],
      "type": "VEC2"
    },
    {
      "bufferView": 0,
      "byteOffset": 8069280,
      "componentType": 5125,
      "count": 120360,
      "max": [
        24530
      ],
      "min": [
        0
      ],
      "type": "SCALAR"
    },
    {
      "bufferView": 2,
      "byteOffset": 9902352,
      "componentType": 5126,
      "count": 53302,
      "max": [
        20.184410095214844,
        -7.2168660163879395,
        319.45989990234375
      ],
      "min": [
        1.6381950378417969,
        -20.043899536132812,
        314.82211303710938
      ],
      "type": "VEC3"
    },
    {
      "bufferView": 2,
      "byteOffset": 10541976,
      "componentType": 5126,
      "count": 53302,
      "max": [
        0.99998968839645386,
        0.9999660849571228,
        0.99998652935028076
      ],
      "min": [
        -0.99999761581420898,
        -0.99996280670166016,
        -0.99999111890792847
      ],
      "type": "VEC3"
    },
    {
      "bufferView": 1,
      "byteOffset": 3300784,
      "componentType": 5126,
      "count": 53302,
      "max": [
        0.70178604125976562,
        1
      ],
      "min": [
        0.00027203169884160161,
        0
      ],
      "type": "VEC2"
    },
    {
      "bufferView": 0,
      "byteOffset": 8550720,
      "componentType": 5125,
      "count": 290919,
      "max": [
        53301
      ],
      "min": [
        0
      ],
      "type": "SCALAR"
    },
    {
      "bufferView": 2,
      "byteOffset": 11181600,
      "componentType": 5126,
      "count": 50549,
      "max": [
        20.116052627563477,
        -7.1363115310668945,
        322.6932373046875
      ],
      "min": [
        2.8186168670654297,
        -20.142436981201172,
        314.94839477539062
      ],
      "type": "VEC3"
    },
    {
      "bufferView": 2,
      "byteOffset": 11788188,
      "componentType": 5126,
      "count": 50549,
      "max": [
        0.99997293949127197,
        0.99995571374893188,
        0.999991774559021
      ],
      "min": [
        -0.99999374151229858,
        -0.9999854564666748,
        -0.99999600648880005
      ],
      "type": "VEC3"
    },
    {
      "bufferView": 1,
      "byteOffset": 3727200,
      "componentType": 5126,
      "count": 50549,
      "max": [
        1,
        0.60195022821426392
      ],
      "min": [
        0,
        0
      ],
      "type": "VEC2"
    },
    {
      "bufferView": 0,
      "byteOffset": 9714396,
      "componentType": 5125,
      "count": 270912,
      "max": [
        50548
      ],
      "min": [
        0
      ],
      "type": "SCALAR"
    }
  ],
  "asset": {
    "extras": {
      "author": "Jena - Lichtstadt (https://sketchfab.com/jena-lichtstadt)",
      "license": "CC0-1.0 (http://creativecommons.org/publicdomain/zero/1.0/)",
      "source": "https://sketchfab.com/3d-models/fuchsturm-jena-248bb9f4e9824575bb7e3a3655dfb628",
      "title": "Fuchsturm Jena"
    },
    "generator": "Sketchfab-7.80.0",
    "version": "2.0"
  },
  "bufferViews": [
    {
      "buffer": 0,
      "byteLength": 10798044,
      "byteOffset": 0,
      "name": "floatBufferViews",
      "target": 34963
    },
    {
      "buffer": 0,
      "byteLength": 4131592,
      "byteOffset": 10798044,
      "byteStride": 8,
      "name": "floatBufferViews",
      "target": 34962
    },
    {
      "buffer": 0,
      "byteLength": 12394776,
      "byteOffset": 14929636,
      "byteStride": 12,
      "name": "floatBufferViews",
      "target": 34962
    }
  ],
  "buffers": [
    {
      "byteLength": 27324412,
      "uri": "scene.bin"
    }
  ],
  "extensionsUsed": [
    "KHR_materials_unlit"
  ],
  "images": [
    {
      "uri": "textures/material_0_baseColor.jpeg"
    },
    {
      "uri": "textures/material_1_baseColor.jpeg"
    },
    {
      "uri": "textures/material_2_baseColor.jpeg"
    },
    {
      "uri": "textures/material_3_baseColor.jpeg"
    },
    {
      "uri": "textures/material_4_baseColor.jpeg"
    },
    {
      "uri": "textures/material_5_baseColor.jpeg"
    },
    {
      "uri": "textures/material_6_baseColor.jpeg"
    }
  ],
  "materials": [
    {
      "doubleSided": true,
      "extensions": {
        "KHR_materials_unlit": {}
      },
      "name": "material_0",
      "pbrMetallicRoughness": {
        "baseColorFactor": [
          1,
          1,
          1,
          1
        ],
        "baseColorTexture": {
          "index": 0,
          "texCoord": 0
        },
        "metallicFactor": 0,
        "roughnessFactor": 1
      }
    },
    {
      "doubleSided": true,
      "extensions": {
        "KHR_materials_unlit": {}
      },
      "name": "material_1",
      "pbrMetallicRoughness": {
        "baseColorFactor": [
          1,
          1,
          1,
          1
        ],
        "baseColorTexture": {
          "index": 1,
          "texCoord": 0
        },
        "metallicFactor": 0,
        "roughnessFactor": 1
      }
    },
    {
      "doubleSided": true,
      "extensions": {
        "KHR_materials_unlit": {}
      },
      "name": "material_2",
      "pbrMetallicRoughness": {
        "baseColorFactor": [
          1,
          1,
          1,
          1
        ],
        "baseColorTexture": {
          "index": 2,
          "texCoord": 0
        },
        "metallicFactor": 0,
        "roughnessFactor": 1
      }
    },
    {
      "doubleSided": true,
      "extensions": {
        "KHR_materials_unlit": {}
      },
      "name": "material_3",
      "pbrMetallicRoughness": {
        "baseColorFactor": [
          1,
          1,
          1,
          1
        ],
        "baseColorTexture": {
          "index": 3,
          "texCoord": 0
        },
        "metallicFactor": 0,
        "roughnessFactor": 1
      }
    },
    {
      "doubleSided": true,
      "extensions": {
        "KHR_materials_unlit": {}
      },
      "name": "material_4",
      "pbrMetallicRoughness": {
        "baseColorFactor": [
          1,
          1,
          1,
          1
        ],
        "baseColorTexture": {
          "index": 4,
          "texCoord": 0
        },
        "metallicFactor": 0,
        "roughnessFactor": 1
      }
    },
    {
      "doubleSided": true,
      "extensions": {
        "KHR_materials_unlit": {}
      },
      "name": "material_5",
      "pbrMetallicRoughness": {
        "baseColorFactor": [
          1,
          1,
          1,
          1
        ],
        "baseColorTexture": {
          "index": 5,
          "texCoord": 0
        },
        "metallicFactor": 0,
        "roughnessFactor": 1
      }
    },
    {
      "doubleSided": true,
      "extensions": {
        "KHR_materials_unlit": {}
      },
      "name": "material_6",
      "pbrMetallicRoughness": {
        "baseColorFactor": [
          1,
          1,
          1,
          1
        ],
        "baseColorTexture": {
          "index": 6,
          "texCoord": 0
        },
        "metallicFactor": 0,
        "roughnessFactor": 1
      }
    }
  ],
  "meshes": [
    {
      "primitives": [
        {
          "attributes": {
            "NORMAL": 1,
            "POSITION": 0,
            "TEXCOORD_0": 2
          },
          "indices": 3,
          "material": 0,
          "mode": 4
        }
      ]
    },
    {
      "primitives": [
        {
          "attributes": {
            "NORMAL": 5,
            "POSITION": 4,
            "TEXCOORD_0": 6
          },
          "indices": 7,
          "material": 0,
          "mode": 4
        }
      ]
    },
    {
      "primitives": [
        {
          "attributes": {
            "NORMAL": 9,
            "POSITION": 8,
            "TEXCOORD_0": 10
          },
          "indices": 11,
          "material": 0,
          "mode": 4
        }
      ]
    },
    {
      "primitives": [
        {
          "attributes": {
            "NORMAL": 13,
            "POSITION": 12,
            "TEXCOORD_0": 14
          },
          "indices": 15,
          "material": 1,
          "mode": 4
        }
      ]
    },
    {
      "primitives": [
        {
          "attributes": {
            "NORMAL": 17,
            "POSITION": 16,
            "TEXCOORD_0": 18
          },
          "indices": 19,
          "material": 1,
          "mode": 4
        }
      ]
    },
    {
      "primitives": [
        {
          "attributes": {
            "NORMAL": 21,
            "POSITION": 20,
            "TEXCOORD_0": 22
          },
          "indices": 23,
          "material": 1,
          "mode": 4
        }
      ]
    },
    {
      "primitives": [
        {
          "attributes": {
            "NORMAL": 25,
            "POSITION": 24,
            "TEXCOORD_0": 26
          },
          "indices": 27,
          "material": 6,
          "mode": 4
        }
      ]
    },
    {
      "primitives": [
        {
          "attributes": {
            "NORMAL": 29,
            "POSITION": 28,
            "TEXCOORD_0": 30
          },
          "indices": 31,
          "material": 5,
          "mode": 4
        }
      ]
    },
    {
      "primitives": [
        {
          "attributes": {
            "NORMAL": 33,
            "POSITION": 32,
            "TEXCOORD_0": 34
          },
          "indices": 35,
          "material": 4,
          "mode": 4
        }
      ]
    },
    {
      "primitives": [
        {
          "attributes": {
            "NORMAL": 37,
            "POSITION": 36,
            "TEXCOORD_0": 38
          },
          "indices": 39,
          "material": 3,
          "mode": 4
        }
      ]
    },
    {
      "primitives": [
        {
          "attributes": {
            "NORMAL": 41,
            "POSITION": 40,
            "TEXCOORD_0": 42
          },
          "indices": 43,
          "material": 2,
          "mode": 4
        }
      ]
    }
  ],
  "nodes": [
    {
      "children": [
        1
      ],
      "name": "RootNode (gltf orientation matrix)",
      "rotation": [
        -0.70710678118654746,
        -0,
        -0,
        0.70710678118654757
      ]
    },
    {
      "children": [
        2
      ],
      "name": "RootNode (model correction matrix)"
    },
    {
      "children": [
        3,
        4,
        5,
        6,
        7,
        8,
        9,
        10,
        11,
        12,
        13
      ],
      "name": "Geode"
    },
    {
      "mesh": 0,
      "name": ""
    },
    {
      "mesh": 1,
      "name": ""
    },
    {
      "mesh": 2,
      "name": ""
    },
    {
      "mesh": 3,
      "name": ""
    },
    {
      "mesh": 4,
      "name": ""
    },
    {
      "mesh": 5,
      "name": ""
    },
    {
      "mesh": 6,
      "name": ""
    },
    {
      "mesh": 7,
      "name": ""
    },
    {
      "mesh": 8,
      "name": ""
    },
    {
      "mesh": 9,
      "name": ""
    },
    {
      "mesh": 10,
      "name": ""
    }
  ],
  "samplers": [
    {
      "magFilter": 9729,
      "minFilter": 9987,
      "wrapS": 10497,
      "wrapT": 10497
    }
  ],
  "scene": 0,
  "scenes": [
    {
      "name": "OSG_Scene",
      "nodes": [
        0
      ]
    }
  ],
  "textures": [
    {
      "sampler": 0,
      "source": 0
    },
    {
      "sampler": 0,
      "source": 1
    },
    {
      "sampler": 0,
      "source": 2
    },
    {
      "sampler": 0,
      "source": 3
    },
    {
      "sampler": 0,
      "source": 4
    },
    {
      "sampler": 0,
      "source": 5
    },
    {
      "sampler": 0,
      "source": 6
    }
  ]
}

